<svg xmlns="http://www.w3.org/2000/svg" xmlns:xlink="http://www.w3.org/1999/xlink" viewBox="0 0 1097.39 375.13"><defs><style>.cls-1{fill:url(#linear-gradient);}.cls-2{fill:url(#linear-gradient-2);}.cls-3{fill:url(#linear-gradient-3);}.cls-4{fill:url(#linear-gradient-4);}.cls-5{fill:url(#linear-gradient-5);}</style><linearGradient id="linear-gradient" x1="-9.99" y1="348.8" x2="1061.12" y2="348.8" gradientUnits="userSpaceOnUse"><stop offset="0" stop-color="#e2454c"/><stop offset="1" stop-color="#8b2c64"/></linearGradient><linearGradient id="linear-gradient-2" x1="-9.99" y1="349.3" x2="1061.12" y2="349.3" xlink:href="#linear-gradient"/><linearGradient id="linear-gradient-3" x1="-9.99" y1="218.89" x2="1061.12" y2="218.89" xlink:href="#linear-gradient"/><linearGradient id="linear-gradient-4" x1="-9.99" y1="218.89" x2="1061.12" y2="218.89" xlink:href="#linear-gradient"/><linearGradient id="linear-gradient-5" x1="-9.99" y1="186.23" x2="1061.12" y2="186.23" xlink:href="#linear-gradient"/></defs><title>logoDeg</title><g id="Layer_2" data-name="Layer 2"><g id="Layer_1-2" data-name="Layer 1"><path class="cls-1" d="M1082.56,342.7c0-9.75-9.69-9.75-9.69-9.75h-9.69v31.7H1068V352.47h2.26l6.73,12.18h5.55l-7-12.65c2.84-.74,7-3,7-9.3m-9.42,4.84-5.12,0v-9.74h4.85s4.83,0,4.83,4.86a4.66,4.66,0,0,1-4.56,4.84"/><path class="cls-2" d="M1071.74,323.46a25.84,25.84,0,1,0,25.65,25.84,25.77,25.77,0,0,0-25.65-25.84m0,46.77a21,21,0,1,1,20.81-20.93,20.91,20.91,0,0,1-20.81,20.93"/><path class="cls-3" d="M423.2,326.11H523.54s41.9,0,41.9-42.16c0-24.35-26.53-32-59.61-41.59-44.3-12.47-102.71-28.48-102.71-95.05,0-82,88.53-82,88.53-82H592v46.36H491.65s-41.89,0-41.89,41.6c0,23.76,27.12,32.67,60.21,42.17,44.28,13.06,102.08,29.68,102.08,95,0,82-88.51,82-88.51,82H423.2Z"/><path class="cls-4" d="M930.89,242.36H857.14V284s0,42.15,41.88,42.15h120.43v46.37H899s-88.54,0-88.54-88.52V153.27s0-88,88.54-88h31.87s88.56,0,88.56,88c0,0,0,89.09-88.56,89.09m0-46.93s41.93,0,41.93-42.16c0-41.6-41.93-41.6-41.93-41.6H899s-41.88,0-41.88,41.6v42.16Z"/><path class="cls-5" d="M77.94,111.67h64.93V65.32H77.94V0h-46V65.32H0v46.35H31.9V284c0,88.52,88.53,88.52,88.53,88.52h22.44V326.1H120.43C77.94,326.1,77.94,284,77.94,284Z"/><path class="cls-5" d="M710.39,111.67h64.93V65.32H710.39V0h-46V65.32H632.48v46.35h31.88V284c0,88.52,88.54,88.52,88.54,88.52h22.42V326.1H752.9c-42.51,0-42.51-42.15-42.51-42.15Z"/><path class="cls-3" d="M286.62,65.31H186.3v46.36H286.62c41.92,0,41.92,42.19,41.92,42.19v41.58H254.77c-88.57,0-88.57,89.11-88.57,89.11,0,87.92,88.57,87.92,88.57,87.92h31.85c88.55,0,88.55-87.92,88.55-87.92V153.86c0-88.55-88.55-88.55-88.55-88.55m41.92,219.24c0,41.56-41.92,41.56-41.92,41.56H254.77s-41.93,0-41.93-41.56c0-42.19,41.93-42.19,41.93-42.19h73.77Z"/></g></g></svg>