<svg xmlns="http://www.w3.org/2000/svg" viewBox="0 0 1289.74 811.18"><defs><style>.cls-1{fill:#fff;}</style></defs><title>pin_2</title><g id="Layer_2" data-name="Layer 2"><g id="Layer_1-2" data-name="Layer 1"><rect width="1289.74" height="641.52" rx="167.97" ry="167.97"/><rect x="489.63" y="455.13" width="310.49" height="310.49" rx="45.1" ry="45.1" transform="translate(-242.72 634.77) rotate(-45)"/><path class="cls-1" d="M1195.86,468c0-9.76-9.7-9.76-9.7-9.76h-9.69V490h4.84V477.79h2.26L1190.3,490h5.56l-7-12.65c2.83-.73,7-3,7-9.29m-9.43,4.83-5.12,0v-9.74h4.85s4.83,0,4.83,4.87a4.66,4.66,0,0,1-4.56,4.83"/><path class="cls-1" d="M1185,448.79a25.83,25.83,0,1,0,25.65,25.83A25.76,25.76,0,0,0,1185,448.79m0,46.76a21,21,0,1,1,20.81-20.93A20.91,20.91,0,0,1,1185,495.55"/><path class="cls-1" d="M536.49,451.43H636.83s41.9,0,41.9-42.16c0-24.35-26.53-32-59.61-41.59-44.29-12.47-102.71-28.48-102.71-95.05,0-82,88.53-82,88.53-82H705.28V237H604.94s-41.89,0-41.89,41.6c0,23.75,27.12,32.66,60.21,42.16,44.29,13.07,102.08,29.68,102.08,95,0,82-88.51,82-88.51,82H536.49Z"/><path class="cls-1" d="M1044.18,367.68H970.44v41.59s0,42.16,41.87,42.16h120.43v46.36H1012.31s-88.53,0-88.53-88.52V278.6s0-88,88.53-88h31.87s88.56,0,88.56,88c0,0,0,89.08-88.56,89.08m0-46.92s41.93,0,41.93-42.16c0-41.6-41.93-41.6-41.93-41.6h-31.87s-41.87,0-41.87,41.6v42.16Z"/><path class="cls-1" d="M191.23,237h64.93V190.64H191.23V125.32h-46v65.32h-31.9V237h31.9V409.27c0,88.52,88.53,88.52,88.53,88.52h22.44V451.43H233.72c-42.49,0-42.49-42.16-42.49-42.16Z"/><path class="cls-1" d="M823.68,237h64.93V190.64H823.68V125.32h-46v65.32H745.77V237h31.88V409.27c0,88.52,88.54,88.52,88.54,88.52h22.42V451.43H866.19c-42.51,0-42.51-42.16-42.51-42.16Z"/><path class="cls-1" d="M399.91,190.63H299.59V237H399.91c41.92,0,41.92,42.18,41.92,42.18v41.58H368.06c-88.56,0-88.56,89.11-88.56,89.11,0,87.92,88.56,87.92,88.56,87.92h31.85c88.56,0,88.56-87.92,88.56-87.92V279.18c0-88.55-88.56-88.55-88.56-88.55m41.92,219.24c0,41.56-41.92,41.56-41.92,41.56H368.06s-41.93,0-41.93-41.56c0-42.19,41.93-42.19,41.93-42.19h73.77Z"/></g></g></svg>