<?xml version="1.0" standalone="no"?>
<!DOCTYPE svg PUBLIC "-//W3C//DTD SVG 20010904//EN"
 "http://www.w3.org/TR/2001/REC-SVG-20010904/DTD/svg10.dtd">
<svg version="1.0" xmlns="http://www.w3.org/2000/svg"
 width="173.000000pt" height="173.000000pt" viewBox="0 0 173.000000 173.000000"
 preserveAspectRatio="xMidYMid meet">
<metadata>
Created by potrace 1.11, written by Peter Selinger 2001-2013
</metadata>
<g transform="translate(0.000000,173.000000) scale(0.100000,-0.100000)"
fill="#000000" stroke="none">
<path d="M728 1572 c-12 -2 -15 -22 -13 -118 0 -71 -3 -118 -9 -122 -6 -4 -29
-7 -51 -8 -22 -1 -46 -2 -53 -3 -9 -1 -11 -24 -10 -88 l3 -88 58 1 c31 0 57
-2 58 -5 1 -3 2 -166 3 -361 3 -380 5 -403 54 -480 61 -96 210 -155 359 -141
9 1 12 27 11 91 l-1 90 -69 0 c-83 0 -117 16 -150 67 -23 38 -23 41 -26 382
-2 229 0 346 7 351 6 3 57 5 113 4 57 -1 108 1 115 3 7 3 11 34 10 91 l-2 87
-120 0 -120 0 -3 123 c-1 67 -6 122 -10 123 -21 3 -141 4 -154 1z"/>
</g>
</svg>
